<svg width="21" height="21" viewBox="0 0 21 21" fill="none" xmlns="http://www.w3.org/2000/svg">
<path d="M20.889 4.14609L16.289 0.246094L14.989 1.74609L19.589 5.64609L20.889 4.14609ZM6.78904 1.84609L5.48904 0.346094L0.889038 4.14609L2.18904 5.64609L6.78904 1.84609ZM11.389 6.44609H9.88904V12.4461L14.589 15.3461L15.389 14.1461L11.389 11.7461V6.44609ZM10.889 2.44609C9.10901 2.44609 7.36895 2.97393 5.88891 3.96287C4.40886 4.9518 3.25531 6.35741 2.57412 8.00194C1.89293 9.64648 1.7147 11.4561 2.06197 13.2019C2.40924 14.9477 3.2664 16.5514 4.52508 17.8101C5.78375 19.0687 7.3874 19.9259 9.13323 20.2732C10.8791 20.6204 12.6887 20.4422 14.3332 19.761C15.9777 19.0798 17.3833 17.9263 18.3723 16.4462C19.3612 14.9662 19.889 13.2261 19.889 11.4461C19.8939 10.2628 19.6645 9.0903 19.2139 7.99616C18.7634 6.90202 18.1006 5.90792 17.2639 5.07122C16.4272 4.23452 15.4331 3.57177 14.339 3.12121C13.2448 2.67065 12.0723 2.4412 10.889 2.44609ZM10.889 18.4461C9.50457 18.4461 8.15119 18.0356 7.00005 17.2664C5.8489 16.4972 4.95169 15.404 4.42188 14.1249C3.89207 12.8458 3.75344 11.4383 4.02354 10.0805C4.29364 8.72259 4.96032 7.47531 5.93929 6.49635C6.91826 5.51738 8.16554 4.85069 9.52341 4.5806C10.8813 4.3105 12.2887 4.44912 13.5678 4.97894C14.8469 5.50875 15.9402 6.40596 16.7093 7.5571C17.4785 8.70825 17.889 10.0616 17.889 11.4461C17.8947 12.3669 17.7176 13.2798 17.3678 14.1316C17.0181 14.9835 16.5027 15.7574 15.8515 16.4086C15.2004 17.0597 14.4264 17.5751 13.5746 17.9249C12.7227 18.2746 11.8099 18.4518 10.889 18.4461Z" fill="#FFCF53"/>
</svg>
