<svg width="20" height="20" viewBox="0 0 26 26" fill="none" xmlns="http://www.w3.org/2000/svg">
<path d="M11.4695 19.1861H13.9955V11.6101H11.4695V19.1861ZM12.7325 0.246094C10.2351 0.246094 7.79379 0.986654 5.71729 2.37413C3.64079 3.7616 2.02236 5.73367 1.06665 8.04095C0.11094 10.3482 -0.139117 12.8871 0.348099 15.3365C0.835314 17.7859 2.03792 20.0358 3.80384 21.8017C5.56976 23.5676 7.81967 24.7703 10.2691 25.2575C12.7185 25.7447 15.2573 25.4946 17.5646 24.5389C19.8719 23.5832 21.844 21.9648 23.2314 19.8883C24.6189 17.8118 25.3595 15.3705 25.3595 12.8731C25.3584 9.52453 24.0277 6.31342 21.6599 3.94563C19.2921 1.57784 16.081 0.247154 12.7325 0.246094ZM12.7325 22.9741C10.7349 22.9741 8.78215 22.3817 7.12121 21.2719C5.46028 20.1621 4.16574 18.5847 3.40129 16.7392C2.63685 14.8937 2.43683 12.8629 2.82654 10.9037C3.21625 8.94447 4.17819 7.14483 5.5907 5.73232C7.00321 4.3198 8.80285 3.35787 10.7621 2.96816C12.7213 2.57845 14.752 2.77847 16.5976 3.54291C18.4431 4.30736 20.0205 5.6019 21.1303 7.26283C22.2401 8.92377 22.8325 10.8765 22.8325 12.8741C22.8285 15.5516 21.7631 18.1182 19.8699 20.0115C17.9766 21.9047 15.4099 22.9701 12.7325 22.9741ZM11.4695 9.08409H13.9955V6.55909H11.4695V9.08409Z" fill="black"/>
</svg>
