<svg width="18" height="18" viewBox="0 0 18 18" fill="none" xmlns="http://www.w3.org/2000/svg">
<path d="M9.19301 0.246094C7.47568 0.246094 5.79691 0.755343 4.369 1.70944C2.94109 2.66354 1.82816 4.01964 1.17097 5.60625C0.513772 7.19286 0.34182 8.93873 0.676855 10.6231C1.01189 12.3074 1.83887 13.8546 3.05321 15.0689C4.26754 16.2832 5.81471 17.1102 7.49904 17.4453C9.18338 17.7803 10.9292 17.6083 12.5159 16.9511C14.1025 16.2939 15.4586 15.181 16.4127 13.7531C17.3668 12.3252 17.876 10.6464 17.876 8.92909C17.8757 6.6263 16.9608 4.4179 15.3325 2.78958C13.7042 1.16126 11.4958 0.246359 9.19301 0.246094ZM9.19301 15.6821C7.8574 15.6821 6.55177 15.286 5.44125 14.544C4.33072 13.802 3.46517 12.7473 2.95406 11.5134C2.44294 10.2794 2.3092 8.9216 2.56977 7.61165C2.83034 6.30169 3.4735 5.09843 4.41792 4.154C5.36235 3.20958 6.56561 2.56642 7.87557 2.30585C9.18552 2.04528 10.5433 2.17902 11.7773 2.69014C13.0112 3.20125 14.0659 4.0668 14.8079 5.17733C15.55 6.28785 15.946 7.59348 15.946 8.92909C15.9467 9.81609 15.7724 10.6945 15.4333 11.5141C15.0942 12.3337 14.5968 13.0784 13.9696 13.7057C13.3424 14.3329 12.5977 14.8303 11.7781 15.1694C10.9584 15.5085 10.08 15.6828 9.19301 15.6821ZM7.78401 10.4051L5.72901 8.34609L4.71001 9.37309L7.77801 12.4411L11.71 8.50609L13.564 6.65209L12.541 5.62909L7.78501 10.4051H7.78401Z" fill="#46BCAA"/>
</svg>
