<svg xmlns="http://www.w3.org/2000/svg" xmlns:xlink="http://www.w3.org/1999/xlink" width="359" height="100" viewBox="0 0 359 100">
  <defs>
    <clipPath id="clip-path">
      <rect id="Rectangle_509" data-name="Rectangle 509" width="359" height="100" transform="translate(20 17)"/>
    </clipPath>
    <clipPath id="clip-path-2">
      <rect id="Rectangle_498" data-name="Rectangle 498" width="748" height="748" transform="translate(-0.256 -0.063)"/>
    </clipPath>
  </defs>
  <g id="MYMENU_GOLD_LOGO" data-name="MYMENU GOLD LOGO" transform="translate(-34.738 13.999)">
    <g id="Group_444" data-name="Group 444" transform="translate(14.738 -31)" clip-path="url(#clip-path)">
      <g id="Group_433" data-name="Group 433" transform="translate(-191.744 -322.937)" clip-path="url(#clip-path-2)">
        <path id="Path_1404" data-name="Path 1404" d="M57.618,59.349a1.775,1.775,0,0,0,1.818-1.818V35.2A29.707,29.707,0,0,0,55.8,36.239V57.531a1.857,1.857,0,0,0,1.818,1.818" transform="translate(189.155 311.366)" fill="#ae9d6c"/>
      </g>
      <g id="Group_434" data-name="Group 434" transform="translate(-191.744 -322.937)" clip-path="url(#clip-path-2)">
        <path id="Path_1405" data-name="Path 1405" d="M61.43,35.06V57.65a1.818,1.818,0,1,0,3.635,0V34.93c-.649,0-1.168-.13-1.818-.13a9.826,9.826,0,0,0-1.947.13c.13,0,.13,0,.13.13" transform="translate(190.796 311.247)" fill="#ae9d6c"/>
      </g>
      <g id="Group_435" data-name="Group 435" transform="translate(-191.744 -322.937)" clip-path="url(#clip-path-2)">
        <path id="Path_1406" data-name="Path 1406" d="M68.918,59.349a1.775,1.775,0,0,0,1.818-1.818V36.239c-1.169-.389-2.467-.779-3.635-1.039V57.531a1.857,1.857,0,0,0,1.818,1.818" transform="translate(192.526 311.366)" fill="#ae9d6c"/>
      </g>
      <g id="Group_436" data-name="Group 436" transform="translate(-191.744 -322.937)" clip-path="url(#clip-path-2)">
        <path id="Path_1407" data-name="Path 1407" d="M74.964,37.1V58.522c0,7.79-2.726,11.945-6.751,13.632a6.2,6.2,0,0,0-3.505,6.232l1.039,10.776A27.707,27.707,0,0,0,74.964,37.1" transform="translate(191.803 311.933)" fill="#ae9d6c"/>
      </g>
      <g id="Group_437" data-name="Group 437" transform="translate(-191.744 -322.937)" clip-path="url(#clip-path-2)">
        <path id="Path_1408" data-name="Path 1408" d="M56.531,37.1V58.522c0,7.79,2.726,11.945,6.751,13.632a6.2,6.2,0,0,1,3.505,6.232L65.749,89.163A27.532,27.532,0,0,1,41.6,61.768,27.873,27.873,0,0,1,56.531,37.1" transform="translate(184.919 311.933)" fill="#ae9d6c"/>
      </g>
      <g id="Group_438" data-name="Group 438" transform="translate(-191.744 -322.937)" clip-path="url(#clip-path-2)">
        <path id="Path_1409" data-name="Path 1409" d="M98.3,73.81V55.5a13.084,13.084,0,0,1,2.986-8.958,10.2,10.2,0,0,1,8.05-3.246,10.655,10.655,0,0,1,5.453,1.428,12.11,12.11,0,0,1,4.025,4.414,13.651,13.651,0,0,1,4.155-4.414A11.61,11.61,0,0,1,136.6,46.546a13.084,13.084,0,0,1,2.986,8.958V73.94a2.6,2.6,0,0,1-2.6-2.6V54.6a8.842,8.842,0,0,0-2.337-6.492,8.781,8.781,0,0,0-12.2,0,9.268,9.268,0,0,0-2.337,6.492V73.81a2.6,2.6,0,0,1-2.6-2.6V54.6a8.842,8.842,0,0,0-2.337-6.492,8.781,8.781,0,0,0-12.2,0,9.268,9.268,0,0,0-2.337,6.492V71.214A2.255,2.255,0,0,1,98.3,73.81Z" transform="translate(201.834 313.782)" fill="#fff"/>
      </g>
      <g id="Group_439" data-name="Group 439" transform="translate(-191.744 -322.937)" clip-path="url(#clip-path-2)">
        <path id="Path_1410" data-name="Path 1410" d="M160.208,43.7h0V60.708c0,3.895-.909,7.141-2.856,9.348a11.079,11.079,0,0,1-5.583,3.635,3.35,3.35,0,0,0-2.467,3.246v7.79a2.6,2.6,0,0,1-2.6,2.6V76.937a3.323,3.323,0,0,0-2.6-3.246,11.367,11.367,0,0,1-5.583-3.635q-2.726-3.311-2.726-9.348V43.7a2.6,2.6,0,0,1,2.6,2.6v15.32a10.523,10.523,0,0,0,2.726,7.53A9.109,9.109,0,0,0,148.134,72a8.649,8.649,0,0,0,6.881-2.856,10.524,10.524,0,0,0,2.726-7.53V46.167a2.385,2.385,0,0,1,2.467-2.467" transform="translate(213.021 313.902)" fill="#fff"/>
      </g>
      <g id="Group_440" data-name="Group 440" transform="translate(-191.744 -322.937)" clip-path="url(#clip-path-2)">
        <path id="Path_1411" data-name="Path 1411" d="M190.76,42.5a11.381,11.381,0,0,0-5.972,1.558,12.679,12.679,0,0,0-3.635,3.376,12.29,12.29,0,0,0-3.505-3.376,12.417,12.417,0,0,0-14.8,2.077,14.076,14.076,0,0,0-3.246,9.608V75.088a4.6,4.6,0,0,0,4.544-4.544V54.834a7.86,7.86,0,0,1,2.077-5.842,7.143,7.143,0,0,1,5.323-2.207,6.523,6.523,0,0,1,5.323,2.207,7.86,7.86,0,0,1,2.077,5.842v15.71a4.6,4.6,0,0,0,4.544,4.544V54.834a7.86,7.86,0,0,1,2.077-5.842,7.523,7.523,0,0,1,10.646,0,7.86,7.86,0,0,1,2.077,5.842v15.71a4.6,4.6,0,0,0,4.544,4.544h0V55.743c0-4.025-1.039-7.271-3.246-9.608A11.1,11.1,0,0,0,190.76,42.5" transform="translate(220.121 313.544)" fill="#ae9d6c"/>
      </g>
      <g id="Group_441" data-name="Group 441" transform="translate(-191.744 -322.937)" clip-path="url(#clip-path-2)">
        <path id="Path_1412" data-name="Path 1412" d="M228.2,62.631a5.677,5.677,0,0,0-6.1,2.726,12.157,12.157,0,0,1-3.505,3.765,11.644,11.644,0,0,1-8.829,1.818,10.681,10.681,0,0,1-7.271-4.934,12.959,12.959,0,0,1,3.246-17.138,10.343,10.343,0,0,1,8.7-1.818,11.272,11.272,0,0,1,7.66,5.583L209.11,58.087a4.642,4.642,0,0,0-2.6,5.713l20.773-8.829s-.26-4.414-4.8-8.7a15.265,15.265,0,0,0-7.271-3.505,18.178,18.178,0,0,0-6.492,0,16.529,16.529,0,0,0-5.842,2.467,17.273,17.273,0,0,0-4.544,4.674,20.039,20.039,0,0,0-2.467,5.972,18.179,18.179,0,0,0,0,6.492,16.184,16.184,0,0,0,2.467,5.972,14.746,14.746,0,0,0,4.414,4.544,16.255,16.255,0,0,0,5.842,2.337,14.969,14.969,0,0,0,3.376.389,15.951,15.951,0,0,0,8.958-2.856c3.9-2.207,6.1-5.583,7.271-10.127" transform="translate(230.853 313.536)" fill="#ae9d6c"/>
      </g>
      <g id="Group_442" data-name="Group 442" transform="translate(-191.744 -322.937)" clip-path="url(#clip-path-2)">
        <path id="Path_1413" data-name="Path 1413" d="M236.743,42.5c-4.025,0-7.271,1.3-9.608,4.025A15.538,15.538,0,0,0,223.5,57.171V75.218a4.6,4.6,0,0,0,4.544-4.544V56.392a9.533,9.533,0,0,1,2.467-6.881,8.12,8.12,0,0,1,6.232-2.6,7.7,7.7,0,0,1,6.232,2.6,9.533,9.533,0,0,1,2.467,6.881V70.673a4.6,4.6,0,0,0,4.544,4.544V57.041c0-4.414-1.168-7.92-3.635-10.646a12.333,12.333,0,0,0-9.608-3.895" transform="translate(239.183 313.544)" fill="#ae9d6c"/>
      </g>
      <g id="Group_443" data-name="Group 443" transform="translate(-191.744 -322.937)" clip-path="url(#clip-path-2)">
        <path id="Path_1414" data-name="Path 1414" d="M274.386,42.9a4.6,4.6,0,0,0-4.544,4.544V61.726a9.533,9.533,0,0,1-2.467,6.881,8.777,8.777,0,0,1-12.464,0,9.533,9.533,0,0,1-2.467-6.881V47.444A4.6,4.6,0,0,0,247.9,42.9V60.947c0,4.414,1.168,8.05,3.635,10.646a12.424,12.424,0,0,0,9.608,4.025c4.025,0,7.271-1.3,9.608-4.025a15.539,15.539,0,0,0,3.635-10.646V42.9Z" transform="translate(246.462 313.663)" fill="#ae9d6c"/>
      </g>
    </g>
  </g>
</svg>
