<svg width="51" height="52" viewBox="0 0 51 52" fill="none" xmlns="http://www.w3.org/2000/svg">
<path d="M18.7831 23.2547C19.0033 23.26 19.2222 23.2206 19.4266 23.1388C19.631 23.0571 19.8167 22.9346 19.9724 22.7789C20.1281 22.6232 20.2505 22.4376 20.3323 22.2331C20.4141 22.0287 20.4535 21.8098 20.4481 21.5897V1.1377C19.3194 1.3837 18.2075 1.70134 17.1191 2.0887V21.5887C17.1281 22.0275 17.3064 22.4458 17.6167 22.7561C17.927 23.0665 18.3454 23.2448 18.7841 23.2537" fill="#AE9D6C"/>
<path d="M23.7772 0.90107V21.5911C23.7718 21.8131 23.8108 22.034 23.892 22.2407C23.9732 22.4474 24.095 22.6357 24.2501 22.7947C24.4052 22.9536 24.5905 23.08 24.7951 23.1662C24.9998 23.2524 25.2196 23.2969 25.4417 23.2969C25.6638 23.2969 25.8837 23.2524 26.0883 23.1662C26.293 23.08 26.4783 22.9536 26.6334 22.7947C26.7885 22.6357 26.9102 22.4474 26.9914 22.2407C27.0726 22.034 27.1117 21.8131 27.1062 21.5911V0.78207C26.5112 0.78207 26.0362 0.663071 25.4412 0.663071C24.8441 0.643423 24.2465 0.683286 23.6572 0.78207C23.7762 0.78207 23.7762 0.78207 23.7762 0.90107" fill="#AE9D6C"/>
<path d="M32.2197 23.2547C32.4398 23.26 32.6587 23.2206 32.8631 23.1388C33.0675 23.057 33.2532 22.9346 33.4089 22.7789C33.5646 22.6232 33.687 22.4375 33.7688 22.2331C33.8506 22.0287 33.89 21.8098 33.8847 21.5897V2.08967C32.8147 1.73267 31.6257 1.37667 30.5557 1.13867V21.5897C30.5646 22.0285 30.7429 22.4468 31.0532 22.7571C31.3636 23.0674 31.7819 23.2457 32.2207 23.2547" fill="#AE9D6C"/>
<path d="M37.0967 3.39746V23.0175C37.0967 30.1515 34.5967 33.9565 30.9137 35.5025C29.8545 36.0058 28.9773 36.8247 28.4025 37.8468C27.8277 38.8689 27.5836 40.044 27.7037 41.2105L28.6547 51.0795C34.0129 50.3859 39.0098 48.0001 42.918 44.2696C46.8263 40.539 49.4417 35.6584 50.3836 30.3382C51.3256 25.0181 50.5448 19.5361 48.155 14.6905C45.7651 9.84487 41.891 5.88854 37.0967 3.39746Z" fill="#AE9D6C"/>
<path d="M13.9075 3.39746V23.0175C13.9075 30.1515 16.4075 33.9565 20.0905 35.5025C21.1496 36.0058 22.0269 36.8247 22.6017 37.8468C23.1765 38.8689 23.4206 40.044 23.3005 41.2105L22.3495 51.0795C16.2341 50.3219 10.6078 47.3514 6.53317 42.7288C2.45851 38.1062 0.217533 32.1515 0.233483 25.9895C0.236561 21.335 1.51213 16.7699 3.92223 12.788C6.33232 8.80602 9.78522 5.55879 13.9075 3.39746" fill="#AE9D6C"/>
</svg>
