<svg width="23" height="23" viewBox="0 0 23 23" fill="none" xmlns="http://www.w3.org/2000/svg">
<path d="M11.5 23C17.8513 23 23 17.8513 23 11.5C23 5.14873 17.8513 0 11.5 0C5.14873 0 0 5.14873 0 11.5C0 17.8513 5.14873 23 11.5 23Z" fill="#EBE4D5"/>
<path d="M11.0455 13.5114V13.3182C11.0492 12.6553 11.108 12.1269 11.2216 11.733C11.339 11.339 11.5095 11.0208 11.733 10.7784C11.9564 10.536 12.2254 10.3163 12.5398 10.1193C12.7746 9.9678 12.9848 9.81061 13.1705 9.64773C13.3561 9.48485 13.5038 9.30492 13.6136 9.10795C13.7235 8.9072 13.7784 8.68371 13.7784 8.4375C13.7784 8.17614 13.7159 7.94697 13.5909 7.75C13.4659 7.55303 13.2973 7.40151 13.0852 7.29545C12.8769 7.18939 12.6458 7.13636 12.392 7.13636C12.1458 7.13636 11.9129 7.19129 11.6932 7.30114C11.4735 7.4072 11.2936 7.56629 11.1534 7.77841C11.0133 7.98674 10.9375 8.24621 10.9261 8.55682H8.60795C8.62689 7.79924 8.80871 7.17424 9.15341 6.68182C9.49811 6.18561 9.95455 5.81629 10.5227 5.57386C11.0909 5.32765 11.7178 5.20455 12.4034 5.20455C13.1572 5.20455 13.8239 5.32955 14.4034 5.57955C14.983 5.82576 15.4375 6.18371 15.767 6.65341C16.0966 7.12311 16.2614 7.68939 16.2614 8.35227C16.2614 8.79545 16.1875 9.18939 16.0398 9.53409C15.8958 9.875 15.6932 10.178 15.4318 10.4432C15.1705 10.7045 14.8617 10.9413 14.5057 11.1534C14.2064 11.3314 13.9602 11.517 13.767 11.7102C13.5777 11.9034 13.4356 12.1269 13.3409 12.3807C13.25 12.6345 13.2027 12.947 13.1989 13.3182V13.5114H11.0455ZM12.1705 17.1477C11.7917 17.1477 11.4678 17.0152 11.1989 16.75C10.9337 16.4811 10.803 16.1591 10.8068 15.7841C10.803 15.4129 10.9337 15.0947 11.1989 14.8295C11.4678 14.5644 11.7917 14.4318 12.1705 14.4318C12.5303 14.4318 12.8466 14.5644 13.1193 14.8295C13.392 15.0947 13.5303 15.4129 13.5341 15.7841C13.5303 16.0341 13.464 16.2633 13.3352 16.4716C13.2102 16.6761 13.0455 16.8409 12.8409 16.9659C12.6364 17.0871 12.4129 17.1477 12.1705 17.1477Z" fill="#AE9C67"/>
</svg>
