<svg width="18" height="23" viewBox="0 0 18 23" fill="none" xmlns="http://www.w3.org/2000/svg">
<path d="M14.67 1H3C1.89543 1 1 1.89543 1 3V19.37C1 20.4746 1.89543 21.37 3 21.37H14.67C15.7746 21.37 16.67 20.4746 16.67 19.37V3C16.67 1.89543 15.7746 1 14.67 1Z" stroke="black" stroke-width="1.5" stroke-linecap="round" stroke-linejoin="round"/>
<path d="M8.84957 13.9902H8.83957C7.71843 13.9902 6.80957 14.8991 6.80957 16.0202V16.0302C6.80957 17.1514 7.71843 18.0602 8.83957 18.0602H8.84957C9.97071 18.0602 10.8796 17.1514 10.8796 16.0302V16.0202C10.8796 14.8991 9.97071 13.9902 8.84957 13.9902Z" stroke="black" stroke-width="1.5" stroke-linecap="round" stroke-linejoin="round"/>
</svg>
