<svg width="14" height="20" viewBox="0 0 14 20" fill="none" xmlns="http://www.w3.org/2000/svg">
<path d="M1.00001 19V5.50001C0.998693 4.90869 1.11419 4.32294 1.33987 3.77638C1.56555 3.22982 1.89696 2.73322 2.31509 2.31509C2.73322 1.89696 3.22982 1.56555 3.77638 1.33987C4.32294 1.11419 4.90869 0.998693 5.50001 1.00001V1.00001C6.09133 0.998693 6.67708 1.11419 7.22364 1.33987C7.77021 1.56555 8.26681 1.89696 8.68493 2.31509C9.10306 2.73322 9.43448 3.22982 9.66015 3.77638C9.88583 4.32294 10.0013 4.90869 10 5.50001V12.9" stroke="black" stroke-width="1.5" stroke-linecap="round" stroke-linejoin="round"/>
<path d="M13 10L10.14 12.86C10.1222 12.8794 10.1006 12.8949 10.0765 12.9055C10.0524 12.9161 10.0263 12.9215 10 12.9215C9.97367 12.9215 9.94763 12.9161 9.92353 12.9055C9.89943 12.8949 9.8778 12.8794 9.86 12.86L7 10" stroke="black" stroke-width="1.5" stroke-linecap="round" stroke-linejoin="round"/>
</svg>
