<svg width="14" height="20" viewBox="0 0 14 20" fill="none" xmlns="http://www.w3.org/2000/svg">
<path d="M13 19V5.50001C13.0013 4.90869 12.8858 4.32294 12.6602 3.77638C12.4345 3.22982 12.1031 2.73322 11.6849 2.31509C11.2668 1.89696 10.7702 1.56555 10.2236 1.33987C9.67708 1.11419 9.09133 0.998693 8.50001 1.00001C7.90869 0.998693 7.32294 1.11419 6.77638 1.33987C6.22982 1.56555 5.73322 1.89696 5.31509 2.31509C4.89696 2.73322 4.56555 3.22982 4.33987 3.77638C4.11419 4.32294 3.99869 4.90869 4.00001 5.50001V12.9" stroke="black" stroke-width="1.5" stroke-linecap="round" stroke-linejoin="round"/>
<path d="M1 10L3.86 12.86C3.8778 12.8794 3.89943 12.8949 3.92353 12.9055C3.94763 12.9161 3.97367 12.9215 4 12.9215C4.02633 12.9215 4.05237 12.9161 4.07647 12.9055C4.10057 12.8949 4.1222 12.8794 4.14 12.86L7 10" stroke="black" stroke-width="1.5" stroke-linecap="round" stroke-linejoin="round"/>
</svg>
