<svg width="50" height="50" viewBox="0 0 50 50" fill="none" xmlns="http://www.w3.org/2000/svg">
<g filter="url(#filter0_d_1_11842)">
<path d="M24.557 40.4792C34.8057 40.4792 43.114 32.171 43.114 21.9222C43.114 11.6735 34.8057 3.36523 24.557 3.36523C14.3083 3.36523 6 11.6735 6 21.9222C6 32.171 14.3083 40.4792 24.557 40.4792Z" fill="url(#paint0_linear_1_11842)"/>
</g>
<path d="M25.9171 29.6742H22.5281V22.4462H20.8281V19.6602H22.5281V17.9902C22.5281 15.7192 23.4811 14.3672 26.2011 14.3672H28.4651V17.1522H27.0501C25.9911 17.1522 25.9201 17.5412 25.9201 18.2672V19.6602H28.4811L28.1811 22.4452H25.9171V29.6732V29.6742Z" fill="white"/>
<defs>
<filter id="filter0_d_1_11842" x="0" y="0.365234" width="49.1138" height="49.114" filterUnits="userSpaceOnUse" color-interpolation-filters="sRGB">
<feFlood flood-opacity="0" result="BackgroundImageFix"/>
<feColorMatrix in="SourceAlpha" type="matrix" values="0 0 0 0 0 0 0 0 0 0 0 0 0 0 0 0 0 0 127 0" result="hardAlpha"/>
<feOffset dy="3"/>
<feGaussianBlur stdDeviation="3"/>
<feColorMatrix type="matrix" values="0 0 0 0 0 0 0 0 0 0 0 0 0 0 0 0 0 0 0.161 0"/>
<feBlend mode="normal" in2="BackgroundImageFix" result="effect1_dropShadow_1_11842"/>
<feBlend mode="normal" in="SourceGraphic" in2="effect1_dropShadow_1_11842" result="shape"/>
</filter>
<linearGradient id="paint0_linear_1_11842" x1="24.557" y1="3.36523" x2="24.557" y2="40.4792" gradientUnits="userSpaceOnUse">
<stop stop-color="#B5A472"/>
<stop offset="1" stop-color="#CBBD95"/>
</linearGradient>
</defs>
</svg>
