<svg width="200" height="200" viewBox="0 0 200 200" fill="none" xmlns="http://www.w3.org/2000/svg">
<path d="M87.6359 112.459V88.8098H80.0439C79.8699 91.0658 79.6929 93.3618 79.4769 96.1678H63.9388C63.7518 99.1098 63.5949 101.562 63.4059 104.504H48.1389C47.6889 107.587 47.3089 110.194 46.9279 112.804L47.0179 112.726L39.9749 112.289C39.8369 114.863 39.7128 117.182 39.5638 119.974L32.2759 120.469C32.0699 123 31.8759 125.442 31.6329 128.363H16.1049C15.9339 131.139 15.7909 133.444 15.6329 136.019H0.0898438V128.798L7.54285 128.13C7.92385 125.13 8.27583 122.354 8.62683 119.578L8.57483 119.644L23.7139 120.462C23.4769 117.499 23.2869 115.13 23.1049 112.751C23.1119 112.743 23.0269 112.828 23.0269 112.828L31.7949 112.045V88.7449L39.5948 88.3048V64.8799H55.5469C55.7279 67.3029 55.9109 69.7699 56.0948 72.2379L47.9749 72.6759V80.3429H55.5579C55.7079 77.4199 55.8429 74.7689 55.9789 72.1189H63.4469C63.5669 69.8059 63.6888 67.4919 63.8248 64.8889H71.3549C71.3549 70.2429 71.3549 75.5881 71.3549 80.9248H63.9548V88.1848H71.2209V80.7948H79.3639V64.9779H87.2809C87.4229 67.0049 87.5808 69.3089 87.7728 72.0009H95.1819C95.2819 69.8729 95.3889 67.5769 95.5139 64.9409H103.345V80.3408L95.6888 80.9908V88.2098L103.489 88.7258V120.049H118.92V135.939H103.859C103.694 133.639 103.53 131.339 103.335 128.617H95.1349L95.2609 128.726V112.336H87.4958L87.6359 112.459ZM55.5929 88.7339H47.8929V95.9198H55.5929V88.7339Z" fill="black"/>
<path d="M175.873 136.595C175.683 138.909 175.493 141.224 175.263 144.014H198.894V159.826H191.23C191.097 157.638 190.957 155.326 190.8 152.717H183.43C183.282 155.06 183.136 157.369 182.973 159.933H175.589C175.421 157.544 175.258 155.24 175.077 152.684H167.494V167.764H191.105L190.405 176.926L190.463 176.856L175.644 176.114C175.45 179.074 175.299 181.379 175.134 183.899L167.49 184.292V191.864H199.01V199.835H159.531C159.391 197.507 159.245 195.049 159.076 192.223L151.74 191.744V176.543L158.94 176.043V168.333H143.34V191.632L135.655 192.224C135.476 194.8 135.305 197.258 135.117 199.954H127.817V184.042L127.665 184.182H135.103V168.26L127.777 167.845C127.587 165.245 127.419 162.946 127.215 160.146H119.035L119.162 160.266V144.413L127.41 143.868V128.741L135.453 128.141V119.936L135.309 120.101L142.929 120.443C143.155 123.257 143.353 125.713 143.545 128.11H151.159C151.367 125.35 151.551 122.911 151.759 120.104H159.339L159.19 119.938V128.137L166.905 128.714C167.047 131.19 167.18 133.494 167.324 135.974L175.967 136.704L175.873 136.595ZM135.56 159.851H159.052V136.573H135.56V159.851Z" fill="black"/>
<path d="M95.0972 24.4381V0.994141H111.186C111.351 3.41614 111.518 5.85819 111.7 8.52319L128.183 9.55115L128.112 9.49011L127.677 16.8181L127.804 16.6981H111.786V24.4622H127.786L127.676 24.3362C127.68 27.2568 127.683 30.1775 127.686 33.0981L127.803 32.9812H119.313C119.313 41.8812 119.351 50.3932 119.284 58.9032C119.268 60.9182 118.896 62.9301 118.695 64.9371L118.833 64.8242L111.639 64.3812V48.8312H103.904C103.756 51.2992 103.616 53.6152 103.452 56.3472H95.7041C95.5041 53.9878 95.2951 51.5426 95.0771 49.0112L87.1501 47.8531L87.2301 47.9452V33.1222H79.9681C79.8381 35.4822 79.7181 37.6521 79.5741 40.2651H70.8672L70.9751 40.3812V17.0812L79.4751 16.4982C79.6321 13.9832 79.7752 11.6791 79.9342 9.16113H87.4751V24.3181H95.2141C95.3591 26.9651 95.5042 29.6182 95.6592 32.4452H103.317V24.8622L95.0972 24.4381Z" fill="black"/>
<path d="M55.5287 56.4985H0.136719V1.01758H55.5287V56.4985ZM8.27173 48.0985H47.2217V9.23853H8.27173V48.0985Z" fill="black"/>
<path d="M0 199.415V144H55.5V199.415H0ZM47.3561 152.221H8.31104V191.021H47.3561V152.221Z" fill="black"/>
<path d="M143.469 56.401V0.956055H198.877V56.401H143.469ZM190.799 9.28101H151.755V48.072H190.799V9.28101Z" fill="black"/>
<path d="M111.871 191.301L95.6892 192.382C95.5252 194.815 95.3692 197.131 95.1892 199.827H87.7822C87.6582 197.516 87.5272 195.069 87.3822 192.294L79.8882 191.678L79.9972 191.787V176.54H64.0312V168.151H79.9532V152.57L79.8472 152.682H95.1692C95.3522 155.163 95.5212 157.47 95.7262 160.287H103.938L103.772 160.138V167.908H111.542L111.411 167.773V176.409H127.679V184.173L127.831 184.032H111.412C111.56 186.825 111.681 189.107 111.801 191.388L111.871 191.301Z" fill="black"/>
<path d="M8.23706 72.2109H23.3682C23.5242 69.8419 23.6752 67.5489 23.8472 64.9249H31.6301V80.325L23.9391 81.007C23.7891 83.38 23.6501 85.5699 23.4901 88.1179H16.0901C15.9571 86.0449 15.8102 83.7369 15.6392 81.0559H8.24805C8.13005 83.2129 8.00508 85.511 7.86108 88.137H0.0390625V64.7959H7.78015C7.92015 67.1059 8.06006 69.4189 8.23706 72.2109Z" fill="black"/>
<path d="M127.803 80.7925H111.84V72.6265L119.281 72.1785C119.137 69.6555 118.997 67.2305 118.847 64.8145L118.7 64.9354C126.708 64.9414 134.724 64.9414 142.974 64.9414C143.157 67.3034 143.335 69.5975 143.54 72.2615H151.71L151.592 72.1434V88.3994H142.914L143.081 88.5474V80.7825H135.312L135.442 80.9164V72.7014H127.678V80.9014L127.803 80.7925Z" fill="black"/>
<path d="M142.947 96.1802L158.986 95.8011L158.88 95.7012C158.988 101.288 159.096 106.874 159.206 112.459L159.349 112.326H135.313V120.097L135.457 119.931L127.797 120.271V104.709L127.676 104.809H143.076V96.0712L142.947 96.1802Z" fill="black"/>
<path d="M175.972 136.704C175.695 134.228 175.419 131.753 175.062 128.571H190.956V112.66H199.042V136.58C191.257 136.58 183.556 136.58 175.863 136.589L175.972 136.704Z" fill="black"/>
<path d="M158.985 95.8011V80.9352L166.84 80.3552C166.995 77.8212 167.14 75.4962 167.303 72.7842H175.053C175.261 75.2142 175.472 77.6621 175.701 80.3391L182.961 80.8972V88.4681H167.446C167.237 91.1781 167.06 93.4791 166.829 96.4681C164.064 96.2051 161.476 95.9591 158.883 95.7081L158.985 95.8011Z" fill="black"/>
<path d="M95.1302 128.611V135.99H79.9573C79.7803 133.605 79.6103 131.309 79.4213 128.747L71.8633 128.279V120.543L79.4263 119.896C79.6033 117.45 79.7683 115.152 79.9623 112.464H87.6362L87.4933 112.331V128.203L95.2583 128.721L95.1302 128.611Z" fill="black"/>
<path d="M191.289 72.6562H198.901V95.9902H191.289V72.6562Z" fill="black"/>
<path d="M127.797 104.709H119.58C119.374 101.703 119.216 99.371 119.027 96.609L111.762 96.1289V88.5699H127.837L127.669 88.4209L127.677 104.808L127.797 104.709Z" fill="black"/>
<path d="M63.7043 136.217H40.0664V128.795H63.5664V136.355L63.7043 136.217Z" fill="black"/>
<path d="M79.8787 191.679V199.907H63.9727V191.784H79.9867L79.8787 191.679Z" fill="black"/>
<path d="M70.8717 40.2656C71.1527 45.5776 71.4337 50.8896 71.7317 56.4966H64.0586V40.9097C66.3516 40.7407 68.6746 40.5706 70.9886 40.3896L70.8717 40.2656Z" fill="black"/>
<path d="M103.929 160.293V144.393H111.391V160.273L111.535 160.139H103.762L103.929 160.293Z" fill="black"/>
<path d="M159.203 112.459H175.114V119.932H159.195L159.344 120.098C159.344 117.507 159.344 114.916 159.344 112.326L159.203 112.459Z" fill="black"/>
<path d="M71.3413 152.64C71.3166 149.739 71.292 146.839 71.2673 143.939L71.1523 144.057H79.8363C79.8363 147.216 79.8363 149.951 79.8363 152.687L79.9414 152.577C77.0354 152.561 74.1297 152.543 71.2244 152.523L71.3413 152.64Z" fill="black"/>
<path d="M135.053 56.5778H127.883V48.8008H135.053V56.5778Z" fill="black"/>
<path d="M15.5447 105.072L8.30469 104.237V96.5703H15.4347V105.17L15.5447 105.072Z" fill="black"/>
<path d="M175.742 96.5H182.822V104.225H175.742V96.5Z" fill="black"/>
<path d="M8.62708 119.573L0.0390625 120.434V112.676H7.64404C7.96204 115.091 8.26014 117.376 8.56714 119.646C8.57514 119.639 8.62708 119.573 8.62708 119.573Z" fill="black"/>
<path d="M46.9297 112.799L55.5837 112.328V119.796H48.0027C47.7027 117.56 47.3727 115.132 47.0317 112.713C47.0197 112.721 46.9297 112.799 46.9297 112.799Z" fill="black"/>
<path d="M190.402 176.924L198.991 176.076V183.833H191.368C191.058 181.409 190.768 179.125 190.468 176.849C190.461 176.855 190.402 176.924 190.402 176.924Z" fill="black"/>
<path d="M111.789 191.395L118.995 192.317V199.943H111.859C111.859 197.117 111.859 194.216 111.859 191.309L111.789 191.395Z" fill="black"/>
<path d="M128.183 9.5509C127.912 6.7989 127.643 4.04594 127.34 0.960938H135.095V8.57983C132.667 8.88983 130.382 9.17986 128.105 9.47986C128.113 9.48986 128.183 9.5509 128.183 9.5509Z" fill="black"/>
<path d="M87.1552 47.8574C87.3072 50.6574 87.4601 53.4574 87.6271 56.5134H79.9991C79.8941 54.1534 79.7861 51.7204 79.6641 48.9974C82.3951 48.6284 84.8241 48.2974 87.2441 47.9604C87.2351 47.9454 87.1552 47.8574 87.1552 47.8574Z" fill="black"/>
<path d="M63.5664 136.356H71.5514C71.4084 139.176 71.2824 141.616 71.1564 144.056L71.2694 143.939H63.7064V136.219L63.5664 136.356Z" fill="black"/>
<path d="M15.4375 105.176L23.9165 104.331C23.5695 107.677 23.3036 110.248 23.0326 112.822C23.0326 112.822 23.1135 112.742 23.1075 112.749C20.8155 112.549 18.5296 112.335 16.0896 112.109C15.9066 109.654 15.7355 107.355 15.5565 105.065L15.4375 105.176Z" fill="black"/>
<path d="M111.391 160.275L119.167 160.262L119.04 160.141V167.779H111.402L111.533 167.914C111.533 165.322 111.533 162.731 111.533 160.141L111.391 160.275Z" fill="black"/>
<path d="M127.835 88.5713L127.801 80.7933L127.675 80.9023L135.439 80.9153L135.309 80.7812V88.5513L135.44 88.4203H127.668L127.835 88.5713Z" fill="black"/>
<path d="M151.708 72.2628V64.8867H158.967V72.1458H151.59L151.708 72.2628Z" fill="black"/>
<path d="M127.688 33.0975H135.064V40.3585H127.805V32.9805L127.688 33.0975Z" fill="black"/>
<path d="M142.912 88.4043C142.924 90.997 142.935 93.59 142.946 96.1833L143.072 96.0732H135.44V88.4233L135.309 88.5543H143.079L142.912 88.4043Z" fill="black"/>
<path d="M127.676 16.8173H135.076V24.3342H127.684L127.794 24.4603C127.798 21.8723 127.803 19.2843 127.807 16.6963L127.676 16.8173Z" fill="black"/>
<path d="M71.2278 152.523V159.9H63.9688V152.641H71.3458L71.2278 152.523Z" fill="black"/>
<path d="M151.337 144.449V151.982H143.562V144.449H151.337Z" fill="black"/>
<path d="M39.4875 40.4524H16.1875V17.0645H39.4875V40.4524Z" fill="black"/>
<path d="M16.1055 160.436H39.3934V183.807H16.1055V160.436Z" fill="black"/>
<path d="M182.874 40.434H159.523V17.127H182.874V40.434Z" fill="black"/>
</svg>
