<svg width="50" height="50" viewBox="0 0 50 50" fill="none" xmlns="http://www.w3.org/2000/svg">
<g filter="url(#filter0_d_1_11830)">
<path d="M25.2868 40.6752C35.5897 40.6752 43.9418 32.3231 43.9418 22.0202C43.9418 11.7174 35.5897 3.36523 25.2868 3.36523C14.984 3.36523 6.63184 11.7174 6.63184 22.0202C6.63184 32.3231 14.984 40.6752 25.2868 40.6752Z" fill="url(#paint0_linear_1_11830)"/>
</g>
<path d="M29.2108 28.2386V23.8896C29.2108 22.8506 29.1958 21.5156 27.7698 21.5156C26.3238 21.5156 26.1078 22.6486 26.1078 23.8156V28.2416H23.3348V19.2926H25.9898V20.5186H26.0258C26.2921 20.0628 26.6771 19.6879 27.1398 19.4337C27.6024 19.1796 28.1254 19.0558 28.6528 19.0756C31.4618 19.0756 31.9828 20.9266 31.9828 23.3366V28.2366L29.2108 28.2386ZM21.5838 28.2386H18.8068V19.2926H21.5848V28.2386H21.5838ZM23.3298 19.2926H23.3348H23.3298ZM18.5898 16.4596C18.5902 16.141 18.6851 15.8298 18.8623 15.5651C19.0396 15.3004 19.2913 15.0943 19.5857 14.9726C19.8801 14.851 20.204 14.8194 20.5164 14.8818C20.8287 14.9442 21.1156 15.0978 21.3407 15.3231C21.5658 15.5485 21.719 15.8356 21.781 16.148C21.843 16.4605 21.811 16.7843 21.689 17.0786C21.567 17.3728 21.3605 17.6243 21.0957 17.8012C20.8308 17.9782 20.5194 18.0726 20.2008 18.0726C19.7735 18.0718 19.3639 17.9015 19.0619 17.5992C18.7599 17.2968 18.5901 16.887 18.5898 16.4596V16.4596Z" fill="white"/>
<defs>
<filter id="filter0_d_1_11830" x="0.631836" y="0.365234" width="49.3101" height="49.3101" filterUnits="userSpaceOnUse" color-interpolation-filters="sRGB">
<feFlood flood-opacity="0" result="BackgroundImageFix"/>
<feColorMatrix in="SourceAlpha" type="matrix" values="0 0 0 0 0 0 0 0 0 0 0 0 0 0 0 0 0 0 127 0" result="hardAlpha"/>
<feOffset dy="3"/>
<feGaussianBlur stdDeviation="3"/>
<feColorMatrix type="matrix" values="0 0 0 0 0 0 0 0 0 0 0 0 0 0 0 0 0 0 0.161 0"/>
<feBlend mode="normal" in2="BackgroundImageFix" result="effect1_dropShadow_1_11830"/>
<feBlend mode="normal" in="SourceGraphic" in2="effect1_dropShadow_1_11830" result="shape"/>
</filter>
<linearGradient id="paint0_linear_1_11830" x1="25.2868" y1="3.36523" x2="25.2868" y2="40.6752" gradientUnits="userSpaceOnUse">
<stop stop-color="#B5A472"/>
<stop offset="1" stop-color="#CBBD95"/>
</linearGradient>
</defs>
</svg>
