<svg width="54" height="54" viewBox="0 0 54 54" fill="none" xmlns="http://www.w3.org/2000/svg">
<g filter="url(#filter0_d_1_11834)">
<path d="M26.7429 41.6752C37.0458 41.6752 45.3979 33.3231 45.3979 23.0202C45.3979 12.7174 37.0458 4.36523 26.7429 4.36523C16.44 4.36523 8.08789 12.7174 8.08789 23.0202C8.08789 33.3231 16.44 41.6752 26.7429 41.6752Z" fill="url(#paint0_linear_1_11834)"/>
</g>
<path d="M30.0303 31.1517H23.4563C22.1719 31.1503 20.9405 30.6396 20.0322 29.7315C19.1239 28.8234 18.6129 27.5921 18.6113 26.3077V19.7337C18.6127 18.4491 19.1235 17.2175 20.0319 16.3092C20.9402 15.4009 22.1718 14.89 23.4563 14.8887H30.0303C31.3149 14.89 32.5465 15.4009 33.4548 16.3092C34.3631 17.2175 34.874 18.4491 34.8753 19.7337V26.3077C34.8737 27.5921 34.3627 28.8234 33.4544 29.7315C32.5461 30.6396 31.3147 31.1503 30.0303 31.1517ZM23.4563 16.5247C22.6056 16.5257 21.79 16.8642 21.1884 17.4657C20.5868 18.0673 20.2484 18.8829 20.2473 19.7337V26.3077C20.2481 27.1585 20.5865 27.9743 21.1881 28.5759C21.7897 29.1775 22.6055 29.5159 23.4563 29.5167H30.0303C30.8812 29.5159 31.6969 29.1775 32.2986 28.5759C32.9002 27.9743 33.2385 27.1585 33.2393 26.3077V19.7337C33.2385 18.8828 32.9002 18.0671 32.2986 17.4654C31.6969 16.8638 30.8812 16.5255 30.0303 16.5247H23.4563ZM26.7433 27.2247C25.9115 27.2247 25.0983 26.978 24.4066 26.5158C23.7149 26.0537 23.1758 25.3968 22.8575 24.6282C22.5391 23.8597 22.4559 23.014 22.6181 22.1981C22.7804 21.3822 23.181 20.6328 23.7692 20.0446C24.3575 19.4564 25.1069 19.0558 25.9228 18.8935C26.7387 18.7312 27.5843 18.8145 28.3529 19.1328C29.1214 19.4512 29.7783 19.9903 30.2405 20.6819C30.7027 21.3736 30.9493 22.1868 30.9493 23.0187C30.9485 24.1341 30.5052 25.2037 29.7167 25.9926C28.9281 26.7815 27.8588 27.2253 26.7433 27.2267V27.2247ZM26.7433 20.4487C26.235 20.4487 25.7381 20.5994 25.3155 20.8818C24.8929 21.1642 24.5635 21.5656 24.369 22.0352C24.1744 22.5048 24.1235 23.0215 24.2227 23.5201C24.3219 24.0186 24.5666 24.4765 24.9261 24.8359C25.2855 25.1954 25.7434 25.4401 26.2419 25.5393C26.7405 25.6385 27.2572 25.5876 27.7268 25.393C28.1964 25.1985 28.5978 24.8691 28.8802 24.4465C29.1626 24.0239 29.3133 23.527 29.3133 23.0187C29.312 22.3377 29.0407 21.6849 28.559 21.2036C28.0773 20.7222 27.4243 20.4515 26.7433 20.4507V20.4487ZM30.9573 19.8487C30.758 19.8487 30.5631 19.7896 30.3973 19.6788C30.2315 19.568 30.1024 19.4106 30.0261 19.2264C29.9498 19.0422 29.9298 18.8396 29.9687 18.644C30.0076 18.4485 30.1036 18.2689 30.2446 18.1279C30.3855 17.9869 30.5651 17.8909 30.7607 17.852C30.9562 17.8131 31.1589 17.8331 31.3431 17.9094C31.5273 17.9857 31.6847 18.1149 31.7954 18.2807C31.9062 18.4464 31.9653 18.6413 31.9653 18.8407C31.9659 18.9734 31.9402 19.105 31.8898 19.2278C31.8394 19.3506 31.7652 19.4623 31.6716 19.5564C31.5779 19.6505 31.4666 19.7252 31.3441 19.7762C31.2215 19.8272 31.0901 19.8535 30.9573 19.8537V19.8487Z" fill="white"/>
<defs>
<filter id="filter0_d_1_11834" x="0.0878906" y="0.365234" width="53.3101" height="53.3101" filterUnits="userSpaceOnUse" color-interpolation-filters="sRGB">
<feFlood flood-opacity="0" result="BackgroundImageFix"/>
<feColorMatrix in="SourceAlpha" type="matrix" values="0 0 0 0 0 0 0 0 0 0 0 0 0 0 0 0 0 0 127 0" result="hardAlpha"/>
<feOffset dy="4"/>
<feGaussianBlur stdDeviation="4"/>
<feColorMatrix type="matrix" values="0 0 0 0 0 0 0 0 0 0 0 0 0 0 0 0 0 0 0.102 0"/>
<feBlend mode="normal" in2="BackgroundImageFix" result="effect1_dropShadow_1_11834"/>
<feBlend mode="normal" in="SourceGraphic" in2="effect1_dropShadow_1_11834" result="shape"/>
</filter>
<linearGradient id="paint0_linear_1_11834" x1="26.7429" y1="4.36523" x2="26.7429" y2="41.6752" gradientUnits="userSpaceOnUse">
<stop stop-color="#B5A472"/>
<stop offset="1" stop-color="#CBBD95"/>
</linearGradient>
</defs>
</svg>
