<svg width="198" height="38" viewBox="0 0 198 38" fill="none" xmlns="http://www.w3.org/2000/svg">
<path d="M28.0356 2.16602C29.8304 3.09385 31.4586 4.31341 32.8536 5.77496C35.2561 8.23018 36.9038 11.3233 37.6007 14.687C38.2363 17.4507 38.2182 20.3245 37.5477 23.08C36.8772 25.8354 35.5729 28.3963 33.7386 30.559C30.9825 33.9546 27.0897 36.2371 22.7806 36.984C22.6936 37.001 22.6036 37.002 22.5166 37.016C21.8326 37.126 21.8557 37.124 21.7887 36.416C21.6337 34.763 21.4367 33.116 21.2887 31.459C21.0744 30.4264 21.0631 29.3619 21.2556 28.325C21.3879 27.7791 21.6409 27.2698 21.9961 26.8345C22.3512 26.3993 22.7993 26.0492 23.3076 25.81C24.4996 25.2737 25.5335 24.4393 26.3094 23.3873C27.0853 22.3354 27.5772 21.1012 27.7376 19.804C27.9445 18.7065 28.045 17.5917 28.0377 16.475C28.0377 11.8656 28.0377 7.25631 28.0377 2.64697L28.0356 2.16602Z" fill="#27AFC8"/>
<path d="M10.9782 2.16992V2.68994C10.9782 7.31261 10.9782 11.9349 10.9782 16.5569C10.9279 18.3744 11.2354 20.1841 11.8832 21.8829C12.5425 23.5837 13.8447 24.9566 15.5082 25.7049C16.3219 26.0767 16.9923 26.7035 17.418 27.4904C17.8436 28.2772 18.0014 29.1814 17.8672 30.0659C17.6612 31.6659 17.5332 33.2659 17.3672 34.8659C17.3052 35.4839 17.2252 36.1009 17.1902 36.7209C17.1692 37.0859 16.9902 37.1119 16.7012 37.0629C15.4606 36.8752 14.2437 36.5554 13.0712 36.1089C10.0288 35.0047 7.33371 33.1133 5.26076 30.6277C3.1878 28.1421 1.81121 25.1511 1.27125 21.9599C0.573024 18.1119 1.10656 14.1416 2.79591 10.6144C4.48527 7.08725 7.24426 4.18293 10.6802 2.31494L10.9782 2.16992Z" fill="#27AFC8"/>
<path d="M118.342 10.6735C118.915 9.83457 119.654 9.12296 120.515 8.58331C121.375 8.04366 122.338 7.68764 123.342 7.53754C127.892 6.92454 131.604 9.49553 132.242 14.2485C132.384 15.7838 132.427 17.3267 132.37 18.8676C132.386 21.8546 132.349 24.8416 132.393 27.8276C132.403 28.5386 132.135 28.5866 131.587 28.4536C130.966 28.2961 130.415 27.9346 130.022 27.427C129.63 26.9194 129.42 26.295 129.424 25.6536C129.412 22.3536 129.429 19.0435 129.414 15.7385C129.472 14.9794 129.37 14.2167 129.115 13.4994C128.86 12.7821 128.458 12.1261 127.934 11.5735C127.286 10.9304 126.465 10.4903 125.571 10.3073C124.676 10.1243 123.748 10.2064 122.899 10.5435C122.091 10.8108 121.378 11.3059 120.844 11.9692C120.311 12.6326 119.98 13.4359 119.892 14.2825C119.792 14.9107 119.749 15.5466 119.762 16.1826C119.769 20.0746 119.747 23.9676 119.783 27.8596C119.789 28.5416 119.517 28.5726 119.015 28.4426C118.349 28.2518 117.77 27.8368 117.375 27.2679C116.979 26.6991 116.793 26.0112 116.846 25.3206C116.838 22.0892 116.838 18.8579 116.846 15.6265C116.948 14.219 116.495 12.8276 115.584 11.7496C114.976 11.0675 114.178 10.5814 113.293 10.3528C112.407 10.1242 111.474 10.1634 110.611 10.4655C109.779 10.6961 109.031 11.1651 108.462 11.8146C107.892 12.4641 107.524 13.2659 107.403 14.1215C107.293 14.6984 107.244 15.2854 107.257 15.8726C107.264 19.1286 107.264 22.3846 107.257 25.6406C107.257 26.3186 107.018 26.975 106.583 27.4948C106.147 28.0145 105.543 28.3645 104.875 28.4835C104.475 28.5405 104.316 28.4765 104.318 28.0215C104.337 23.8595 104.297 19.6976 104.354 15.5366C104.299 13.5084 104.98 11.5287 106.272 9.96454C107.011 9.14667 107.917 8.4961 108.927 8.0564C109.938 7.61669 111.031 7.39803 112.133 7.41498C113.236 7.43193 114.321 7.68409 115.318 8.15466C116.315 8.62524 117.2 9.30335 117.913 10.1436C118.043 10.2966 118.161 10.4465 118.342 10.6735Z" fill="#27AFC8"/>
<path d="M146.355 26.0329C147.605 26.0142 148.828 25.6756 149.91 25.0496C150.991 24.4236 151.894 23.531 152.533 22.4569C152.853 21.8766 153.314 21.3861 153.873 21.0302C154.432 20.6743 155.072 20.4644 155.733 20.4199C156.488 20.3649 156.603 20.5199 156.389 21.2379C155.736 23.5416 154.32 25.5551 152.372 26.9487C150.425 28.3424 148.062 29.0335 145.671 28.9089C143.404 28.809 141.231 27.9711 139.484 26.5226C137.737 25.0741 136.511 23.0944 135.993 20.8849C135.594 19.2911 135.564 17.6272 135.905 16.02C136.247 14.4128 136.95 12.9047 137.962 11.6104C138.974 10.3161 140.268 9.26969 141.746 8.55098C143.223 7.83226 144.845 7.46015 146.488 7.46291C148.607 7.46625 150.67 8.14965 152.372 9.41261C154.074 10.6756 155.326 12.4514 155.943 14.4789C156.229 15.4969 156.231 15.4999 155.268 15.9079C151.312 17.5866 147.355 19.2639 143.398 20.9399C142.635 21.2629 142.545 21.1959 142.526 20.3399C142.498 19.7107 142.675 19.0895 143.03 18.5692C143.385 18.049 143.899 17.6577 144.495 17.4539C146.995 16.4029 149.495 15.3689 152 14.3279C152.782 14.0019 152.782 14.0019 152.282 13.2849C151.616 12.3732 150.75 11.6268 149.75 11.1032C148.75 10.5796 147.643 10.2928 146.514 10.265C145.386 10.2373 144.266 10.4693 143.241 10.9432C142.217 11.417 141.315 12.12 140.605 12.9979C139.447 14.4065 138.783 16.1566 138.716 17.9792C138.649 19.8018 139.182 21.596 140.234 23.0859C140.927 24.0495 141.85 24.8242 142.919 25.339C143.989 25.8538 145.17 26.0924 146.355 26.0329Z" fill="#27AFC8"/>
<path d="M18.2444 7.89678C18.2444 5.42178 18.2503 2.94578 18.2363 0.469775C18.2363 0.181775 18.3094 0.120822 18.5874 0.105822C19.2082 0.0701946 19.8306 0.0701946 20.4514 0.105822C20.6674 0.118822 20.7203 0.18181 20.7203 0.39281C20.7143 5.36948 20.712 10.3461 20.7134 15.3228C20.7231 15.4917 20.6984 15.6608 20.6409 15.8199C20.5833 15.9789 20.4941 16.1247 20.3785 16.2482C20.263 16.3717 20.1234 16.4705 19.9685 16.5385C19.8136 16.6065 19.6466 16.6423 19.4774 16.6438C19.3055 16.6401 19.1362 16.6014 18.9799 16.5298C18.8235 16.4583 18.6835 16.3555 18.5684 16.2278C18.4532 16.1002 18.3655 15.9503 18.3104 15.7874C18.2554 15.6245 18.2343 15.4521 18.2484 15.2808C18.2404 12.8228 18.2444 10.3558 18.2444 7.89678Z" fill="#27AFC8"/>
<path d="M23.1721 8.01004C23.1721 5.61004 23.1801 3.21003 23.1621 0.810025C23.1621 0.454025 23.2621 0.410019 23.5621 0.503019C24.1541 0.685019 24.7492 0.859024 25.3472 1.02102C25.3903 1.02592 25.4319 1.03945 25.4697 1.06082C25.5075 1.08219 25.5406 1.11097 25.567 1.14541C25.5934 1.17986 25.6127 1.21929 25.6235 1.26132C25.6344 1.30335 25.6366 1.34712 25.6301 1.39004C25.6241 6.04804 25.6218 10.706 25.6232 15.364C25.6309 15.5291 25.6051 15.6941 25.5472 15.8489C25.4894 16.0037 25.4008 16.1452 25.2867 16.2649C25.1727 16.3845 25.0357 16.4797 24.8838 16.5449C24.7319 16.6101 24.5685 16.6438 24.4032 16.644C24.2342 16.6412 24.0674 16.6043 23.9131 16.5352C23.7588 16.4662 23.62 16.3666 23.5052 16.2425C23.3905 16.1184 23.3021 15.9723 23.2454 15.8131C23.1886 15.6538 23.1647 15.4847 23.1752 15.316C23.1698 12.882 23.1688 10.4467 23.1721 8.01004Z" fill="#27AFC8"/>
<path d="M15.7583 0.448242C15.7643 0.574242 15.7743 0.674231 15.7743 0.774231C15.7743 5.62423 15.7743 10.4746 15.7743 15.3253C15.7904 15.526 15.7566 15.7277 15.6759 15.9123C15.5951 16.0968 15.4699 16.2585 15.3115 16.3829C15.153 16.5073 14.9662 16.5905 14.7678 16.6251C14.5693 16.6597 14.3655 16.6446 14.1743 16.5812C13.9172 16.5026 13.6938 16.3399 13.5403 16.1192C13.3867 15.8985 13.3117 15.6327 13.3272 15.3643C13.3272 13.0663 13.3272 10.7683 13.3272 8.47028C13.3272 6.14628 13.3323 3.82327 13.3203 1.49927C13.3111 1.44552 13.3128 1.39046 13.325 1.33734C13.3373 1.28423 13.36 1.23409 13.3918 1.18982C13.4236 1.14554 13.4639 1.108 13.5103 1.07941C13.5568 1.05081 13.6083 1.03175 13.6622 1.02325C14.3499 0.793727 15.0497 0.601765 15.7583 0.448242Z" fill="#27AFC8"/>
<path d="M176.644 21.4195C176.644 23.9135 176.621 25.9195 176.658 27.9295C176.669 28.5215 176.431 28.5625 175.973 28.4625C175.302 28.2921 174.711 27.894 174.301 27.3362C173.892 26.7784 173.688 26.0956 173.726 25.4045C173.717 22.4412 173.717 19.4782 173.726 16.5155C173.814 15.0367 173.39 13.5727 172.526 12.3695C171.863 11.475 170.939 10.8086 169.881 10.4625C168.823 10.1163 167.683 10.1076 166.62 10.4375C165.621 10.6704 164.714 11.1933 164.011 11.9406C163.309 12.6879 162.843 13.6263 162.673 14.6375C162.531 15.3584 162.477 16.0937 162.511 16.8275C162.511 19.7175 162.518 22.6065 162.511 25.4965C162.531 26.1879 162.309 26.8646 161.883 27.409C161.456 27.9534 160.852 28.3311 160.176 28.4765C159.764 28.5505 159.566 28.5255 159.569 28.0025C159.594 24.0115 159.479 20.0155 159.623 16.0295C159.752 12.4695 161.199 9.49048 164.69 8.10548C169.631 6.14448 175.555 8.34153 176.499 14.8665C176.837 17.2065 176.533 19.5595 176.644 21.4195Z" fill="#27AFC8"/>
<path d="M197.774 14.5981C197.774 16.6051 197.851 18.6161 197.757 20.6191C197.582 24.3811 195.412 27.8681 191.334 28.6911C185.859 29.7971 181.464 26.6911 180.863 21.1441C180.577 18.5091 180.786 15.8621 180.739 13.2211C180.71 11.6061 180.75 9.99009 180.723 8.37509C180.715 7.90409 180.837 7.79109 181.304 7.87509C181.98 8.01376 182.586 8.38424 183.017 8.92239C183.448 9.46054 183.678 10.1325 183.666 10.8221C183.674 13.9801 183.652 17.1381 183.682 20.2951C183.644 21.831 184.209 23.3206 185.257 24.4441C185.971 25.2123 186.893 25.7566 187.911 26.011C188.929 26.2654 189.998 26.2189 190.99 25.8771C191.928 25.6133 192.773 25.0896 193.426 24.3664C194.079 23.6433 194.515 22.7502 194.682 21.7901C194.822 21.119 194.878 20.4331 194.849 19.7481C194.849 16.8111 194.84 13.8731 194.849 10.9361C194.816 10.2449 195.024 9.56353 195.437 9.00863C195.851 8.45373 196.444 8.05979 197.116 7.89413C197.594 7.79413 197.798 7.86211 197.789 8.43411C197.754 10.4901 197.775 12.5461 197.775 14.6031L197.774 14.5981Z" fill="#27AFC8"/>
<path d="M64.1807 11.8272C64.6464 10.943 65.295 10.1681 66.0833 9.55375C66.8715 8.93944 67.7815 8.49984 68.7527 8.2642C73.0837 7.3982 77.1086 9.66423 77.4686 14.7212C77.7686 18.9472 77.5247 23.1912 77.5807 27.4262C77.5877 27.9262 77.3867 27.9472 77.0037 27.8082C76.6442 27.6782 76.3381 27.4324 76.1335 27.1095C75.929 26.7865 75.8376 26.4048 75.8737 26.0242C75.8737 22.4492 75.8827 18.8732 75.8657 15.2982C75.8912 14.5383 75.7637 13.781 75.4907 13.0713C75.2178 12.3617 74.8049 11.7142 74.2767 11.1672C73.57 10.4432 72.6707 9.93668 71.6853 9.70738C70.6999 9.47808 69.6695 9.53562 68.7157 9.87321C67.7911 10.1356 66.9621 10.6597 66.3286 11.3826C65.6952 12.1055 65.2843 12.9961 65.1456 13.9472C65.0368 14.4997 64.9876 15.0622 64.9987 15.6252C65.004 19.4919 65.004 23.3609 64.9987 27.2322C64.9987 27.4412 65.1157 27.7322 64.9157 27.8452C64.6657 27.9872 64.3856 27.8132 64.1616 27.6742C63.8905 27.5068 63.6713 27.2672 63.5284 26.9824C63.3856 26.6976 63.3248 26.3786 63.3527 26.0612C63.3693 22.6085 63.3693 19.1555 63.3527 15.7022C63.4103 14.8457 63.2856 13.9868 62.9867 13.1821C62.6878 12.3774 62.2215 11.6453 61.6187 11.0342C60.9123 10.3629 60.035 9.8988 59.0825 9.69279C58.1301 9.48678 57.1393 9.54674 56.2186 9.86619C55.3181 10.1221 54.5074 10.6252 53.8782 11.3184C53.249 12.0116 52.8265 12.8672 52.6587 13.7882C52.5187 14.4593 52.4623 15.1452 52.4907 15.8302C52.4907 19.2096 52.4907 22.5889 52.4907 25.9682C52.5383 26.3478 52.4588 26.7325 52.2647 27.0621C52.0705 27.3918 51.7728 27.6478 51.4177 27.7902C51.0867 27.9212 50.8817 27.9682 50.8827 27.4772C50.8957 23.1922 50.8267 18.9052 50.9147 14.6212C50.9489 13.2025 51.4335 11.8314 52.2983 10.7063C53.1632 9.58113 54.3635 8.76024 55.7257 8.36222C57.1709 7.89477 58.7288 7.91003 60.1646 8.40574C61.6003 8.90145 62.8358 9.85069 63.6847 11.1102C63.8397 11.3272 63.9877 11.5472 64.1807 11.8272Z" fill="#1B1B1B"/>
<path d="M89.3899 36.6341C89.3899 34.5501 89.3899 32.4704 89.3899 30.3951C89.4753 29.8046 89.3299 29.2039 88.9841 28.7177C88.6383 28.2316 88.1186 27.8972 87.5328 27.784C86.1267 27.3632 84.8864 26.5152 83.984 25.3576C83.0816 24.2001 82.5618 22.7904 82.4968 21.3241C82.1198 17.6421 82.4159 13.9391 82.3439 10.2461C82.3359 9.85407 82.3439 9.46302 82.3439 9.07102C82.3439 8.41702 82.5159 8.31608 83.1039 8.63108C83.4067 8.79453 83.654 9.04443 83.8143 9.34897C83.9746 9.65351 84.0405 9.99886 84.0038 10.341C83.9888 13.547 83.9818 16.7541 84.0038 19.9601C83.9404 21.0272 84.1361 22.0938 84.5742 23.0689C85.0123 24.0441 85.6798 24.8988 86.5198 25.56C87.3575 26.1909 88.3421 26.5983 89.3806 26.7439C90.4192 26.8895 91.4777 26.7685 92.4567 26.3924C93.4356 26.0163 94.3028 25.3974 94.9767 24.5938C95.6506 23.7903 96.109 22.8285 96.3088 21.799C96.4283 21.0999 96.4815 20.3911 96.4678 19.682C96.4678 16.5734 96.4678 13.465 96.4678 10.357C96.4254 9.97748 96.5106 9.59465 96.7097 9.26877C96.9089 8.9429 97.2108 8.69249 97.5679 8.55704C97.9419 8.42304 98.2108 8.37807 98.1998 8.94907C98.1208 12.9851 98.3888 17.029 98.0588 21.058C98.026 22.6004 97.5024 24.0922 96.5641 25.3168C95.6258 26.5414 94.3216 27.4351 92.8408 27.8681C92.3046 27.9725 91.8276 28.2756 91.5054 28.7168C91.1831 29.1579 91.0393 29.7044 91.1028 30.247C91.0948 31.765 91.1168 33.282 91.0948 34.8C91.123 35.0366 91.0992 35.2765 91.0253 35.503C90.9514 35.7295 90.8291 35.9372 90.6669 36.1117C90.5046 36.2862 90.3065 36.4233 90.0859 36.5135C89.8654 36.6037 89.6279 36.6449 89.3899 36.6341Z" fill="#1B1B1B"/>
</svg>