<svg width="50" height="50" viewBox="0 0 50 50" fill="none" xmlns="http://www.w3.org/2000/svg">
<g filter="url(#filter0_d_1_11838)">
<path d="M25.1989 40.6752C35.5018 40.6752 43.8539 32.3231 43.8539 22.0202C43.8539 11.7174 35.5018 3.36523 25.1989 3.36523C14.8961 3.36523 6.54395 11.7174 6.54395 22.0202C6.54395 32.3231 14.8961 40.6752 25.1989 40.6752Z" fill="url(#paint0_linear_1_11838)"/>
</g>
<path d="M32.8529 17.2742C32.2808 17.5277 31.6742 17.6945 31.0529 17.7692C31.7069 17.376 32.1958 16.7588 32.4289 16.0322C31.8122 16.398 31.1375 16.6553 30.4339 16.7932C30.0028 16.3343 29.4438 16.0155 28.8294 15.8782C28.215 15.7408 27.5735 15.7912 26.988 16.0228C26.4026 16.2544 25.9002 16.6566 25.5461 17.1771C25.1919 17.6977 25.0024 18.3126 25.0019 18.9422C25.002 19.1832 25.0295 19.4234 25.0839 19.6582C23.8354 19.5957 22.6139 19.2713 21.4989 18.706C20.3839 18.1408 19.4003 17.3473 18.6119 16.3772C18.2107 17.0684 18.0879 17.8865 18.2684 18.6651C18.449 19.4436 18.9194 20.1241 19.5839 20.5682C19.0853 20.5533 18.5977 20.4189 18.1619 20.1762V20.2162C18.1621 20.9411 18.413 21.6437 18.8721 22.2047C19.3313 22.7657 19.9703 23.1506 20.6809 23.2942C20.411 23.3676 20.1326 23.4046 19.8529 23.4042C19.6545 23.4042 19.4566 23.3851 19.2619 23.3472C19.4627 23.9711 19.8534 24.5168 20.3794 24.9078C20.9055 25.2988 21.5406 25.5157 22.1959 25.5282C21.0831 26.4002 19.7097 26.8731 18.2959 26.8712C18.0453 26.8717 17.7948 26.8574 17.5459 26.8282C18.9818 27.7511 20.653 28.2409 22.3599 28.2392C23.5357 28.2474 24.7015 28.0219 25.7894 27.5757C26.8773 27.1294 27.8656 26.4714 28.697 25.6399C29.5284 24.8083 30.1861 23.8198 30.6321 22.7318C31.0781 21.6438 31.3034 20.478 31.2949 19.3022C31.2949 19.1652 31.2949 19.0312 31.2859 18.8962C31.9006 18.4519 32.4313 17.9017 32.8529 17.2712V17.2742Z" fill="white"/>
<defs>
<filter id="filter0_d_1_11838" x="0.543945" y="0.365234" width="49.3101" height="49.3101" filterUnits="userSpaceOnUse" color-interpolation-filters="sRGB">
<feFlood flood-opacity="0" result="BackgroundImageFix"/>
<feColorMatrix in="SourceAlpha" type="matrix" values="0 0 0 0 0 0 0 0 0 0 0 0 0 0 0 0 0 0 127 0" result="hardAlpha"/>
<feOffset dy="3"/>
<feGaussianBlur stdDeviation="3"/>
<feColorMatrix type="matrix" values="0 0 0 0 0 0 0 0 0 0 0 0 0 0 0 0 0 0 0.161 0"/>
<feBlend mode="normal" in2="BackgroundImageFix" result="effect1_dropShadow_1_11838"/>
<feBlend mode="normal" in="SourceGraphic" in2="effect1_dropShadow_1_11838" result="shape"/>
</filter>
<linearGradient id="paint0_linear_1_11838" x1="25.1989" y1="3.36523" x2="25.1989" y2="40.6752" gradientUnits="userSpaceOnUse">
<stop stop-color="#B5A472"/>
<stop offset="1" stop-color="#CBBD95"/>
</linearGradient>
</defs>
</svg>
